<svg xmlns="http://www.w3.org/2000/svg" width="367" height="112" viewBox="0 0 367 112">
  <g fill="none" fill-rule="evenodd" transform="translate(.5)">
    <path fill="#FD8B1D" d="M126.7989,63.248 L110.3589,27.336 L86.6729,31.193 L114.9589,83.671 C115.8769,85.462 116.4519,86.943 116.6829,88.111 C117.0639,90.994 114.6889,92.823 109.5559,93.605 C107.4079,93.917 105.7969,94.148 104.7239,94.304 L107.3709,111.253 C108.5189,111.017 110.2619,110.802 112.5989,110.611 C114.9369,110.414 116.6809,110.237 117.8319,110.085 C127.7209,108.448 134.1999,105.607 137.2669,101.559 C139.1059,99.145 140.5589,95.759 141.6369,91.4 C142.0929,89.763 142.7839,86.106 143.7049,80.422 L153.9379,20.392 L131.1679,24.128 L126.7989,63.248 Z"/>
    <path fill="#277CD9" d="M218.8449,30.897 C214.2379,23.485 206.7539,20.635 196.3919,22.348 C193.5519,22.821 190.9789,23.643 188.6749,24.821 C184.6069,27.095 181.0749,31.135 178.0829,36.942 L176.5829,27.351 L155.0499,30.847 L164.5909,91.84 L188.1619,88.102 L183.3339,56.915 C183.1029,55.202 182.9889,53.641 182.9889,52.239 C182.9889,49.124 183.7929,46.751 185.4009,45.116 C187.0099,43.478 189.3499,42.701 192.4169,42.778 C196.8619,42.778 199.6219,46.171 200.6929,52.956 L205.7529,85.355 L229.3229,81.492 L223.6809,44.835 C222.7589,39.214 221.1449,34.567 218.8449,30.897 L218.8449,30.897 Z M343.6739,24.128 L339.3049,63.248 L322.8629,27.336 L299.1769,31.193 L327.4639,83.671 C328.3799,85.462 328.9569,86.943 329.1869,88.111 C329.5679,90.994 327.1929,92.823 322.0589,93.605 C319.9119,93.917 318.3019,94.148 317.2289,94.304 L319.8749,111.253 C321.0219,111.017 322.7649,110.802 325.1049,110.611 C327.4409,110.414 329.1849,110.237 330.3389,110.085 C340.2239,108.448 346.7029,105.607 349.7709,101.559 C351.6079,99.145 353.0639,95.759 354.1389,91.4 C354.5979,89.763 355.2859,86.106 356.2079,80.422 L366.4409,20.392 L343.6739,24.128 Z M240.1809,39.991 L264.8229,43.101 L234.5569,66.951 L232.5949,83.251 L290.0869,90.535 L292.1439,72.714 L264.7529,69.242 L294.2259,45.831 L296.1809,28.973 L242.3679,22.185 L240.1809,39.991 Z M44.9579,59.271 L56.8019,60.675 C55.8059,63.484 53.7429,65.627 50.6079,67.106 C47.7799,68.509 44.8749,69.018 41.8939,68.627 C32.0309,67.383 27.0989,61.04 27.0989,49.598 C27.0989,47.733 27.2119,45.747 27.4439,43.645 C29.2799,28.468 34.7909,20.88 43.9789,20.88 C47.8819,20.88 51.1549,21.966 53.7959,24.138 C56.4359,26.31 58.0239,29.371 58.5609,33.323 L84.0509,36.463 C83.8199,26.335 80.3709,18.04 73.7029,11.57 C65.8059,3.857 55.3049,0 42.1979,0 C31.8489,0 23.1109,3.002 15.9829,9.006 C7.2429,16.335 2.0699,26.821 0.4619,40.463 C0.1539,43.114 -0.0001,45.689 -0.0001,48.182 C-0.0001,58.553 2.7969,67.322 8.3939,74.496 C12.1499,79.251 16.9399,82.917 22.7679,85.487 C28.3629,87.982 34.3029,89.229 40.5889,89.229 C48.8659,89.229 55.6889,86.691 61.0559,81.611 L61.0559,90.092 L78.4239,92.329 L84.0609,45.504 L47.1559,40.808 L44.9579,59.271 Z"/>
  </g>
</svg>
